<svg width="22" height="22" viewBox="0 0 22 22" fill="none" xmlns="http://www.w3.org/2000/svg">
<path d="M13.2927 19.6782C17.2338 18.6389 19.9798 15.067 19.9798 10.9909C19.9798 6.03973 15.9518 2.01171 11.0007 2.01171C6.8223 2.01171 4.09319 4.45407 2.83163 5.90535L2.11184 6.73337H3.20898H5.90398C6.00367 6.73337 6.09148 6.82118 6.09148 6.92087C6.09148 7.03357 6.00002 7.11754 5.90398 7.11754H1.8451C1.84436 7.11751 1.84279 7.11742 1.84039 7.11724C1.83504 7.11684 1.82791 7.11613 1.81986 7.11505C1.81181 7.11398 1.80426 7.11273 1.79787 7.11147C1.79689 7.11128 1.79599 7.1111 1.79516 7.11093C1.76231 7.09881 1.73863 7.08558 1.72127 7.07317L1.71471 7.06849L1.708 7.06401C1.69756 7.05706 1.6859 7.04559 1.67523 7.02639C1.66646 7.0106 1.65863 6.99304 1.65291 6.97588C1.64984 6.96668 1.64781 6.95887 1.64648 6.95262V6.95254V6.95241V6.95227V6.95214V6.952V6.95187V6.95173V6.9516V6.95146V6.95133V6.95119V6.95106V6.95093V6.95079V6.95066V6.95052V6.95039V6.95025V6.95012V6.94999V6.94985V6.94972V6.94958V6.94945V6.94931V6.94918V6.94905V6.94891V6.94878V6.94864V6.94851V6.94837V6.94824V6.94811V6.94797V6.94784V6.9477V6.94757V6.94743V6.9473V6.94717V6.94703V6.9469V6.94676V6.94663V6.94649V6.94636V6.94622V6.94609V6.94596V6.94582V6.94569V6.94555V6.94542V6.94528V6.94515V6.94501V6.94488V6.94475V6.94461V6.94448V6.94434V6.94421V6.94407V6.94394V6.9438V6.94367V6.94353V6.9434V6.94326V6.94313V6.94299V6.94286V6.94272V6.94259V6.94245V6.94232V6.94218V6.94205V6.94191V6.94178V6.94164V6.94151V6.94137V6.94124V6.9411V6.94097V6.94083V6.94069V6.94056V6.94042V6.94029V6.94015V6.94002V6.93988V6.93974V6.93961V6.93947V6.93934V6.9392V6.93906V6.93893V6.93879V6.93865V6.93852V6.93838V6.93825V6.93811V6.93797V6.93784V6.9377V6.93756V6.93742V6.93729V6.93715V6.93701V6.93688V6.93674V6.9366V6.93646V6.93633V6.93619V6.93605V6.93591V6.93578V6.93564V6.9355V6.93536V6.93522V6.93509V6.93495V6.93481V6.93467V6.93453V6.93439V6.93426V6.93412V6.93398V6.93384V6.9337V6.93356V6.93342V6.93328V6.93314V6.933V6.93286V6.93272V6.93258V6.93244V6.9323V6.93216V6.93202V6.93188V6.93174V6.9316V6.93146V6.93132V6.93118V6.93104V6.9309V6.93076V6.93062V6.93048V6.93034V6.93019V6.93005V6.92991V6.92977V6.92963V6.92948V6.92934V6.9292V6.92906V6.92892V6.92877V6.92863V6.92849V6.92834V6.9282V6.92806V6.92791V6.92777V6.92763V6.92748V6.92734V6.9272V6.92705V6.92691V6.92676V6.92662V6.92647V6.92633V6.92619V6.92604V6.92589V6.92575V6.9256V6.92546V6.92531V6.92517V6.92502V6.92488V6.92473V6.92458V6.92444V6.92429V6.92414V6.924V6.92385V6.9237V6.92355V6.92341V6.92326V6.92311V6.92296V6.92282V6.92267V6.92252V6.92237V6.92222V6.92207V6.92192V6.92177V6.92163V6.92148V6.92133V6.92118V6.92103V6.92088V6.92073V6.92058V6.92043V6.92027V6.92012V6.91997V6.91982V6.91967V6.91952V6.91937V6.91921V6.91906V6.91891V6.91876V6.91861V6.91845V6.9183V6.91815V6.91799V6.91784V6.91769V6.91753V6.91738V6.91722V6.91707V6.91691V6.91676V6.91661V6.91645V6.9163V6.91614V6.91598V6.91583V6.91567V6.91552V6.91536V6.9152V6.91505V6.91489V6.91473V6.91457V6.91442V6.91426V6.9141V6.91394V6.91378V6.91363V6.91347V6.91331V6.91315V6.91299V6.91283V6.91267V6.91251V6.91235V6.91219V6.91203V6.91187V6.91171V2.75004C1.64648 2.65035 1.73429 2.56254 1.83398 2.56254C1.93368 2.56254 2.02148 2.65035 2.02148 2.75004V4.94087V6.21128L2.88736 5.28166C4.3284 3.73453 7.01953 1.64587 11.0007 1.64587C16.1603 1.64587 20.3548 5.84035 20.3548 11C20.3548 15.239 17.5021 18.9571 13.4083 20.0437C13.3936 20.046 13.3801 20.0479 13.3679 20.0493C13.3592 20.0503 13.3521 20.0509 13.3466 20.0513L13.3403 20.0516C13.3396 20.0517 13.3391 20.0517 13.3387 20.0517C13.3383 20.0517 13.3381 20.0517 13.3382 20.0517C13.2519 20.0517 13.1741 19.9927 13.1523 19.9104L13.1524 19.9104L13.1511 19.9058C13.1264 19.8161 13.1759 19.71 13.2927 19.6782ZM13.2927 19.6782C13.2923 19.6783 13.2918 19.6784 13.2914 19.6785L13.164 19.195L13.2935 19.678C13.2933 19.678 13.293 19.6781 13.2927 19.6782Z" fill="#F5F5FA" stroke="#F5F5FA"/>
<path d="M10.3498 20.8358C10.3315 20.8358 10.3132 20.8267 10.304 20.8267C9.31398 20.7625 8.34232 20.5425 7.42565 20.185C7.15982 20.0842 6.97648 19.8183 6.98565 19.5342C6.98565 19.4517 7.00398 19.3692 7.03148 19.2958C7.16898 18.9475 7.58149 18.7733 7.92065 18.9017C8.71815 19.2133 9.55232 19.3967 10.3957 19.4608C10.7532 19.4792 11.0373 19.7908 11.0373 20.1575L11.0282 20.1942C11.0098 20.5517 10.7073 20.8358 10.3498 20.8358ZM5.29898 18.865C5.14315 18.865 4.99648 18.81 4.86815 18.7183C4.09815 18.095 3.41982 17.3708 2.86982 16.5642C2.78732 16.445 2.74148 16.3167 2.74148 16.1792C2.74148 15.95 2.85148 15.7392 3.04398 15.6108C3.34648 15.4 3.78648 15.4825 3.99732 15.7758C3.99732 15.785 3.99732 15.785 3.99732 15.785C4.00648 15.7942 4.01565 15.8125 4.02482 15.8217C4.50148 16.5092 5.07898 17.1233 5.72982 17.6367C5.88565 17.765 5.98648 17.9575 5.98648 18.1683C5.98648 18.3242 5.94065 18.48 5.83982 18.6083C5.70232 18.7733 5.50982 18.865 5.29898 18.865ZM2.23732 14.3917C1.93482 14.3917 1.66898 14.1992 1.58648 13.915C1.29315 12.9708 1.14648 11.99 1.14648 11V10.9908C1.15565 10.615 1.45815 10.3125 1.83398 10.3125C2.20982 10.3125 2.52148 10.6242 2.52148 11C2.52148 11.8617 2.64982 12.705 2.89732 13.5025C2.91565 13.5758 2.92482 13.64 2.92482 13.7133C2.92482 14.0067 2.73232 14.2725 2.43898 14.3642C2.37482 14.3825 2.31065 14.3917 2.23732 14.3917Z" fill="#F5F5FA"/>
</svg>
