<svg width="45" height="45" viewBox="0 0 45 45" fill="none" xmlns="http://www.w3.org/2000/svg">
<path d="M33.7503 11.25C32.6066 11.25 31.5566 10.5938 31.0316 9.58125L29.6816 6.8625C28.8191 5.15625 26.5691 3.75 24.6566 3.75H20.3628C18.4316 3.75 16.1816 5.15625 15.3191 6.8625L13.9691 9.58125C13.4441 10.5938 12.3941 11.25 11.2503 11.25C7.18156 11.25 3.95656 14.6812 4.21906 18.7312L5.19406 34.2188C5.41906 38.0812 7.50031 41.25 12.6753 41.25H32.3253C37.5003 41.25 39.5628 38.0812 39.8066 34.2188L40.7816 18.7312C41.0441 14.6812 37.8191 11.25 33.7503 11.25ZM19.6878 13.5938H25.3128C26.0816 13.5938 26.7191 14.2313 26.7191 15C26.7191 15.7687 26.0816 16.4062 25.3128 16.4062H19.6878C18.9191 16.4062 18.2816 15.7687 18.2816 15C18.2816 14.2313 18.9191 13.5938 19.6878 13.5938ZM22.5003 33.975C19.0128 33.975 16.1628 31.1437 16.1628 27.6375C16.1628 24.1312 18.9941 21.3 22.5003 21.3C26.0066 21.3 28.8378 24.1312 28.8378 27.6375C28.8378 31.1437 25.9878 33.975 22.5003 33.975Z" fill="#151436"/>
</svg>
