<svg width="27" height="27" viewBox="0 0 27 27" fill="none" xmlns="http://www.w3.org/2000/svg">
<path d="M14.8177 22.8587L14.8111 22.8627L14.8046 22.8669L13.234 23.8766C12.0796 24.583 10.5125 23.7652 10.5125 22.3875V16.425C10.5125 15.9458 10.3781 15.4303 10.1955 14.9737C10.0118 14.5144 9.76368 14.0761 9.50293 13.7501L9.48889 13.7326L9.47333 13.7164L8.94662 13.1672C8.74901 12.9555 8.71801 12.6452 8.86968 12.4086L8.86972 12.4086L8.87315 12.4031L14.6331 3.15559L14.6336 3.15492C14.7446 2.97597 14.9438 2.86249 15.165 2.86249H20.925C21.8864 2.86249 22.675 3.65113 22.675 4.61249V7.08749C22.675 7.44314 22.5609 7.87702 22.3682 8.3009C22.179 8.71717 21.9336 9.08072 21.7067 9.31112L16.8865 13.5708C16.4739 13.9168 16.1536 14.4104 15.9366 14.9219C15.7176 15.438 15.5875 16.0106 15.5875 16.5375V21.375C15.5875 21.613 15.5043 21.9276 15.3486 22.2271C15.1912 22.5297 14.993 22.7536 14.8177 22.8587Z" fill="#F5F5FA" stroke="#F5F5FA"/>
<path d="M11.6439 4.08374L7.6502 10.485C7.2677 11.1037 6.3902 11.1937 5.88395 10.665L4.8377 9.56249C4.2752 8.99999 3.8252 7.98749 3.8252 7.31249V4.72499C3.8252 3.37499 4.8377 2.36249 6.0752 2.36249H10.6877C11.5652 2.36249 12.1052 3.32999 11.6439 4.08374Z" fill="#F5F5FA"/>
</svg>
