<svg width="50" height="50" viewBox="0 0 50 50" fill="none" xmlns="http://www.w3.org/2000/svg">
<path d="M36.6208 9.23333L32.4541 7.04583C28.7958 5.12708 26.9666 4.16667 25 4.16667C23.0333 4.16667 21.2041 5.125 17.5458 7.04583L16.877 7.39792L35.4666 18.0208L43.8333 13.8333C42.4875 12.3083 40.3166 11.1688 36.6208 9.22917M45.3083 16.5917L36.9791 20.7583V27.0833C36.9791 27.4977 36.8145 27.8952 36.5215 28.1882C36.2285 28.4812 35.831 28.6458 35.4166 28.6458C35.0022 28.6458 34.6048 28.4812 34.3118 28.1882C34.0187 27.8952 33.8541 27.4977 33.8541 27.0833V22.3208L26.5625 25.9667V45.6333C28.0583 45.2604 29.7604 44.3688 32.4541 42.9542L36.6208 40.7667C41.102 38.4146 43.3437 37.2396 44.5895 35.125C45.8333 33.0125 45.8333 30.3813 45.8333 25.125V24.8813C45.8333 20.9375 45.8333 18.4708 45.3083 16.5917ZM23.4375 45.6333V25.9667L4.69163 16.5917C4.16663 18.4708 4.16663 20.9375 4.16663 24.8771V25.1208C4.16663 30.3813 4.16663 33.0125 5.41038 35.125C6.65621 37.2396 8.89788 38.4167 13.3791 40.7687L17.5458 42.9542C20.2395 44.3688 21.9416 45.2604 23.4375 45.6333ZM6.16663 13.8354L25 23.2521L32.1062 19.7L13.5937 9.12083L13.3791 9.23333C9.68538 11.1708 7.51246 12.3104 6.16663 13.8375" fill="#E0E0E0"/>
</svg>
