<svg width="27" height="27" viewBox="0 0 27 27" fill="none" xmlns="http://www.w3.org/2000/svg">
<path d="M25.0938 13.5C25.0938 18.7556 21.5556 23.3655 16.4784 24.7104C16.4248 24.7188 16.3887 24.7225 16.3688 24.7225C16.2149 24.7225 16.0734 24.6191 16.0317 24.4678C15.9853 24.2745 16.097 24.09 16.2745 24.0401C21.0603 22.7773 24.395 18.4392 24.395 13.4887C24.395 7.47511 19.5024 2.5825 13.4887 2.5825C8.40831 2.5825 5.08754 5.55195 3.54889 7.32197L2.8291 8.15H3.92625H7.23375C7.41886 8.15 7.5775 8.30864 7.5775 8.49375C7.5775 8.70083 7.41989 8.84875 7.245 8.84875H2.26125C2.23361 8.84875 2.20424 8.84524 2.17223 8.83693C2.1188 8.81812 2.07773 8.79607 2.04562 8.77313L2.03906 8.76845L2.03235 8.76397C2.00519 8.74587 1.98057 8.72025 1.96029 8.68619C1.92523 8.61464 1.91138 8.57224 1.90625 8.54265V8.54262V8.54245V8.54228V8.54212V8.54195V8.54178V8.54161V8.54144V8.54127V8.54111V8.54094V8.54077V8.5406V8.54043V8.54027V8.5401V8.53993V8.53976V8.5396V8.53943V8.53926V8.53909V8.53893V8.53876V8.53859V8.53842V8.53826V8.53809V8.53792V8.53776V8.53759V8.53742V8.53726V8.53709V8.53692V8.53676V8.53659V8.53643V8.53626V8.53609V8.53593V8.53576V8.53559V8.53543V8.53526V8.5351V8.53493V8.53477V8.5346V8.53443V8.53427V8.5341V8.53394V8.53377V8.53361V8.53344V8.53328V8.53311V8.53294V8.53278V8.53261V8.53245V8.53228V8.53212V8.53195V8.53179V8.53162V8.53146V8.53129V8.53113V8.53096V8.5308V8.53063V8.53047V8.5303V8.53014V8.52997V8.52981V8.52964V8.52948V8.52931V8.52915V8.52898V8.52882V8.52865V8.52849V8.52832V8.52816V8.52799V8.52783V8.52766V8.5275V8.52734V8.52717V8.52701V8.52684V8.52668V8.52651V8.52635V8.52618V8.52602V8.52585V8.52569V8.52552V8.52536V8.52519V8.52503V8.52486V8.5247V8.52453V8.52437V8.5242V8.52404V8.52387V8.52371V8.52354V8.52338V8.52321V8.52305V8.52288V8.52272V8.52255V8.52239V8.52222V8.52206V8.52189V8.52172V8.52156V8.52139V8.52123V8.52106V8.5209V8.52073V8.52057V8.5204V8.52023V8.52007V8.5199V8.51974V8.51957V8.51941V8.51924V8.51907V8.51891V8.51874V8.51857V8.51841V8.51824V8.51808V8.51791V8.51774V8.51758V8.51741V8.51724V8.51708V8.51691V8.51674V8.51658V8.51641V8.51624V8.51607V8.51591V8.51574V8.51557V8.5154V8.51524V8.51507V8.5149V8.51473V8.51457V8.5144V8.51423V8.51406V8.51389V8.51373V8.51356V8.51339V8.51322V8.51305V8.51288V8.51271V8.51255V8.51238V8.51221V8.51204V8.51187V8.5117V8.51153V8.51136V8.51119V8.51102V8.51085V8.51068V8.51051V8.51034V8.51017V8.51V8.50983V8.50966V8.50949V8.50932V8.50915V8.50898V8.50881V8.50864V8.50846V8.50829V8.50812V8.50795V8.50778V8.50761V8.50743V8.50726V8.50709V8.50692V8.50675V8.50657V8.5064V8.50623V8.50605V8.50588V8.50571V8.50554V8.50536V8.50519V8.50501V8.50484V8.50467V8.50449V8.50432V8.50414V8.50397V8.50379V8.50362V8.50344V8.50327V8.50309V8.50292V8.50274V8.50257V8.50239V8.50221V8.50204V8.50186V8.50169V8.50151V8.50133V8.50116V8.50098V8.5008V8.50062V8.50045V8.50027V8.50009V8.49991V8.49973V8.49956V8.49938V8.4992V8.49902V8.49884V8.49866V8.49848V8.4983V8.49812V8.49794V8.49776V8.49758V8.4974V8.49722V8.49704V8.49686V8.49668V8.4965V8.49632V8.49613V8.49595V8.49577V8.49559V8.4954V8.49522V8.49504V8.49486V8.49467V8.49449V8.49431V8.49412V8.49394V8.49375V8.49357V8.49338V8.4932V8.49301V8.49283V8.49264V8.49246V8.49227V8.49209V8.4919V8.49171V8.49153V8.49134V8.49115V8.49097V8.49078V8.49059V8.4904V8.49021V8.49003V8.48984V8.48965V8.48946V8.48927V8.48908V8.48889V8.4887V8.48851V8.48832V8.48813V8.48794V8.48775V8.48756V8.48737V8.48717V8.48698V8.48679V8.4866V8.4864V8.48621V8.48602V8.48583V8.48563V8.48544V8.48524V8.48505V8.48485V8.48466V8.48446V8.48427V8.48407V8.48388V8.48368V8.48349V8.48329V8.48309V8.48289V8.4827V8.4825V3.375C1.90625 3.18989 2.06489 3.03125 2.25 3.03125C2.43511 3.03125 2.59375 3.18989 2.59375 3.375V6.06375V7.33416L3.45963 6.40454C5.24025 4.49282 8.57096 1.90625 13.5 1.90625C19.8951 1.90625 25.0938 7.10489 25.0938 13.5Z" fill="#F5F5FA" stroke="#F5F5FA"/>
<path d="M12.7012 25.5712C12.6787 25.5712 12.645 25.5712 12.6225 25.56C11.4188 25.4812 10.2375 25.2113 9.1125 24.7725C8.78625 24.6488 8.5725 24.3225 8.5725 23.9737C8.5725 23.8725 8.595 23.7712 8.62875 23.6812C8.7975 23.2537 9.2925 23.0288 9.72 23.1975C10.6875 23.58 11.7112 23.805 12.7462 23.8837H12.7575C13.2075 23.9062 13.545 24.2887 13.545 24.7387C13.545 24.75 13.545 24.7725 13.545 24.7838C13.5112 25.2225 13.14 25.5712 12.7012 25.5712ZM6.5025 23.1525C6.31125 23.1525 6.13125 23.0963 5.97375 22.9725C5.02875 22.2188 4.2075 21.33 3.52125 20.3287C3.42 20.1825 3.36375 20.025 3.36375 19.8562C3.36375 19.575 3.49875 19.3163 3.735 19.1588C4.10625 18.9 4.6575 19.0012 4.905 19.3725C5.50125 20.2387 6.21 21.0037 7.03125 21.645C7.2225 21.8025 7.34625 22.0387 7.34625 22.2975C7.34625 22.4887 7.29 22.68 7.16625 22.8375C7.00875 23.04 6.76125 23.1525 6.5025 23.1525ZM2.745 17.6625C2.37375 17.6625 2.0475 17.4263 1.94625 17.0775C1.58625 15.9188 1.40625 14.715 1.40625 13.5C1.40625 13.0388 1.78875 12.6562 2.25 12.6562C2.71125 12.6562 3.09375 13.0388 3.09375 13.5C3.09375 14.5463 3.25125 15.5812 3.555 16.5712C3.5775 16.65 3.58875 16.74 3.58875 16.83C3.58875 17.2013 3.3525 17.5163 3.00375 17.6288C2.91375 17.6513 2.835 17.6625 2.745 17.6625Z" fill="#F5F5FA"/>
<path d="M13.5 18C15.9853 18 18 15.9853 18 13.5C18 11.0147 15.9853 9 13.5 9C11.0147 9 9 11.0147 9 13.5C9 15.9853 11.0147 18 13.5 18Z" fill="#F5F5FA"/>
</svg>
